<svg viewBox="0 0 21 20" fill="none" xmlns="http://www.w3.org/2000/svg">
  <path
    d="M11.2213 2.49994L19.1597 16.2499C19.2328 16.3766 19.2713 16.5203 19.2713 16.6666C19.2713 16.8129 19.2328 16.9566 19.1597 17.0833C19.0865 17.2099 18.9813 17.3151 18.8547 17.3883C18.728 17.4614 18.5843 17.4999 18.438 17.4999H2.56134C2.41506 17.4999 2.27136 17.4614 2.14468 17.3883C2.018 17.3151 1.91281 17.2099 1.83967 17.0833C1.76653 16.9566 1.72803 16.8129 1.72803 16.6666C1.72803 16.5203 1.76653 16.3766 1.83967 16.2499L9.77801 2.49994C9.85115 2.37327 9.95635 2.26808 10.083 2.19495C10.2097 2.12181 10.3534 2.08331 10.4997 2.08331C10.6459 2.08331 10.7896 2.12181 10.9163 2.19495C11.043 2.26808 11.1482 2.37327 11.2213 2.49994ZM9.66634 13.3333V14.9999H11.333V13.3333H9.66634ZM9.66634 7.49994V11.6666H11.333V7.49994H9.66634Z"
    fill="currentColor" />
</svg>